<mxfile host="app.diagrams.net" agent="Mozilla/5.0 (Windows NT 10.0; Win64; x64) AppleWebKit/537.36 (KHTML, like Gecko) Chrome/136.0.0.0 Safari/537.36" version="27.0.9">
  <diagram name="Page-1" id="c7488fd3-1785-93aa-aadb-54a6760d102a">
    <mxGraphModel dx="1188" dy="624" grid="1" gridSize="10" guides="1" tooltips="1" connect="1" arrows="1" fold="1" page="1" pageScale="1" pageWidth="1100" pageHeight="850" background="none" math="0" shadow="0">
      <root>
        <mxCell id="0" />
        <mxCell id="1" parent="0" />
        <mxCell id="ASC8tzarfdHUPEDWtyre-5" value="" style="edgeStyle=orthogonalEdgeStyle;rounded=0;orthogonalLoop=1;jettySize=auto;html=1;entryX=0;entryY=0.5;entryDx=0;entryDy=0;" edge="1" parent="1" source="ASC8tzarfdHUPEDWtyre-1" target="ASC8tzarfdHUPEDWtyre-6">
          <mxGeometry relative="1" as="geometry">
            <mxPoint x="187.5" y="70" as="targetPoint" />
          </mxGeometry>
        </mxCell>
        <mxCell id="ASC8tzarfdHUPEDWtyre-1" value="Inicio de&lt;div&gt;pago&lt;/div&gt;" style="strokeWidth=2;html=1;shape=mxgraph.flowchart.start_1;whiteSpace=wrap;fillColor=#d5e8d4;strokeColor=#82b366;" vertex="1" parent="1">
          <mxGeometry x="185" y="30" width="100" height="60" as="geometry" />
        </mxCell>
        <mxCell id="ASC8tzarfdHUPEDWtyre-9" value="" style="edgeStyle=orthogonalEdgeStyle;rounded=0;orthogonalLoop=1;jettySize=auto;html=1;" edge="1" parent="1" source="ASC8tzarfdHUPEDWtyre-6" target="ASC8tzarfdHUPEDWtyre-8">
          <mxGeometry relative="1" as="geometry" />
        </mxCell>
        <mxCell id="ASC8tzarfdHUPEDWtyre-6" value="Solicitud de&amp;nbsp;&lt;div&gt;pago&lt;/div&gt;" style="whiteSpace=wrap;html=1;strokeWidth=2;fillColor=#ffe6cc;strokeColor=#d79b00;" vertex="1" parent="1">
          <mxGeometry x="390" y="30" width="120" height="60" as="geometry" />
        </mxCell>
        <mxCell id="ASC8tzarfdHUPEDWtyre-12" value="" style="edgeStyle=orthogonalEdgeStyle;rounded=0;orthogonalLoop=1;jettySize=auto;html=1;" edge="1" parent="1" source="ASC8tzarfdHUPEDWtyre-8" target="ASC8tzarfdHUPEDWtyre-11">
          <mxGeometry relative="1" as="geometry" />
        </mxCell>
        <mxCell id="ASC8tzarfdHUPEDWtyre-8" value="Cliente ingresa datos personales" style="shape=parallelogram;perimeter=parallelogramPerimeter;whiteSpace=wrap;html=1;fixedSize=1;strokeWidth=2;fillColor=#e1d5e7;strokeColor=#9673a6;" vertex="1" parent="1">
          <mxGeometry x="570" y="30" width="140" height="60" as="geometry" />
        </mxCell>
        <mxCell id="ASC8tzarfdHUPEDWtyre-14" value="" style="edgeStyle=orthogonalEdgeStyle;rounded=0;orthogonalLoop=1;jettySize=auto;html=1;" edge="1" parent="1" source="ASC8tzarfdHUPEDWtyre-11" target="ASC8tzarfdHUPEDWtyre-13">
          <mxGeometry relative="1" as="geometry">
            <Array as="points">
              <mxPoint x="855" y="120" />
              <mxPoint x="450" y="120" />
            </Array>
          </mxGeometry>
        </mxCell>
        <mxCell id="ASC8tzarfdHUPEDWtyre-11" value="Cliente ingresa datos&amp;nbsp;&lt;div&gt;de tarjeta&lt;/div&gt;" style="shape=parallelogram;perimeter=parallelogramPerimeter;whiteSpace=wrap;html=1;fixedSize=1;strokeWidth=2;fillColor=#e1d5e7;strokeColor=#9673a6;" vertex="1" parent="1">
          <mxGeometry x="780" y="30" width="150" height="60" as="geometry" />
        </mxCell>
        <mxCell id="ASC8tzarfdHUPEDWtyre-16" value="" style="edgeStyle=orthogonalEdgeStyle;rounded=0;orthogonalLoop=1;jettySize=auto;html=1;" edge="1" parent="1" source="ASC8tzarfdHUPEDWtyre-13" target="ASC8tzarfdHUPEDWtyre-15">
          <mxGeometry relative="1" as="geometry" />
        </mxCell>
        <mxCell id="ASC8tzarfdHUPEDWtyre-17" value="Respuesta API" style="edgeLabel;html=1;align=center;verticalAlign=middle;resizable=0;points=[];" vertex="1" connectable="0" parent="ASC8tzarfdHUPEDWtyre-16">
          <mxGeometry x="0.0286" y="3" relative="1" as="geometry">
            <mxPoint as="offset" />
          </mxGeometry>
        </mxCell>
        <mxCell id="ASC8tzarfdHUPEDWtyre-13" value="Enviar datos a API&lt;div&gt;(Stripe/Paypal)&lt;/div&gt;" style="whiteSpace=wrap;html=1;strokeWidth=2;fillColor=#ffe6cc;strokeColor=#d79b00;" vertex="1" parent="1">
          <mxGeometry x="390" y="170" width="120" height="60" as="geometry" />
        </mxCell>
        <mxCell id="ASC8tzarfdHUPEDWtyre-19" style="edgeStyle=orthogonalEdgeStyle;rounded=0;orthogonalLoop=1;jettySize=auto;html=1;" edge="1" parent="1" source="ASC8tzarfdHUPEDWtyre-15" target="ASC8tzarfdHUPEDWtyre-18">
          <mxGeometry relative="1" as="geometry">
            <mxPoint x="900" y="340" as="sourcePoint" />
          </mxGeometry>
        </mxCell>
        <mxCell id="ASC8tzarfdHUPEDWtyre-21" value="Si" style="edgeLabel;html=1;align=center;verticalAlign=middle;resizable=0;points=[];" vertex="1" connectable="0" parent="ASC8tzarfdHUPEDWtyre-19">
          <mxGeometry x="0.4974" relative="1" as="geometry">
            <mxPoint as="offset" />
          </mxGeometry>
        </mxCell>
        <mxCell id="ASC8tzarfdHUPEDWtyre-23" value="" style="edgeStyle=orthogonalEdgeStyle;rounded=0;orthogonalLoop=1;jettySize=auto;html=1;entryX=0;entryY=0.5;entryDx=0;entryDy=0;entryPerimeter=0;" edge="1" parent="1" source="ASC8tzarfdHUPEDWtyre-15" target="ASC8tzarfdHUPEDWtyre-25">
          <mxGeometry relative="1" as="geometry">
            <mxPoint x="955" y="340" as="targetPoint" />
          </mxGeometry>
        </mxCell>
        <mxCell id="ASC8tzarfdHUPEDWtyre-24" value="No" style="edgeLabel;html=1;align=center;verticalAlign=middle;resizable=0;points=[];" vertex="1" connectable="0" parent="ASC8tzarfdHUPEDWtyre-23">
          <mxGeometry x="-0.35" y="1" relative="1" as="geometry">
            <mxPoint as="offset" />
          </mxGeometry>
        </mxCell>
        <mxCell id="ASC8tzarfdHUPEDWtyre-18" value="&lt;div&gt;&lt;br&gt;&lt;/div&gt;&lt;div&gt;&lt;span style=&quot;background-color: transparent; color: light-dark(rgb(0, 0, 0), rgb(255, 255, 255));&quot;&gt;Actualizar estado de reserva (True)&lt;/span&gt;&lt;/div&gt;" style="strokeWidth=2;html=1;shape=mxgraph.flowchart.database;whiteSpace=wrap;fillColor=#CCFFCC;strokeColor=#84A484;" vertex="1" parent="1">
          <mxGeometry x="200" y="300" width="90" height="100" as="geometry" />
        </mxCell>
        <mxCell id="ASC8tzarfdHUPEDWtyre-27" value="" style="edgeStyle=orthogonalEdgeStyle;rounded=0;orthogonalLoop=1;jettySize=auto;html=1;" edge="1" parent="1" source="ASC8tzarfdHUPEDWtyre-25" target="ASC8tzarfdHUPEDWtyre-26">
          <mxGeometry relative="1" as="geometry" />
        </mxCell>
        <mxCell id="ASC8tzarfdHUPEDWtyre-28" style="edgeStyle=orthogonalEdgeStyle;rounded=0;orthogonalLoop=1;jettySize=auto;html=1;exitX=0.5;exitY=0;exitDx=0;exitDy=0;entryX=1;entryY=0.5;entryDx=0;entryDy=0;" edge="1" parent="1">
          <mxGeometry relative="1" as="geometry">
            <mxPoint x="794" y="170" as="sourcePoint" />
            <mxPoint x="919" y="60" as="targetPoint" />
            <Array as="points">
              <mxPoint x="794" y="160" />
              <mxPoint x="929" y="160" />
              <mxPoint x="929" y="60" />
            </Array>
          </mxGeometry>
        </mxCell>
        <mxCell id="ASC8tzarfdHUPEDWtyre-29" value="Si" style="edgeLabel;html=1;align=center;verticalAlign=middle;resizable=0;points=[];" vertex="1" connectable="0" parent="ASC8tzarfdHUPEDWtyre-28">
          <mxGeometry x="0.0908" y="-1" relative="1" as="geometry">
            <mxPoint x="5" y="-4" as="offset" />
          </mxGeometry>
        </mxCell>
        <mxCell id="ASC8tzarfdHUPEDWtyre-36" value="" style="edgeStyle=orthogonalEdgeStyle;rounded=0;orthogonalLoop=1;jettySize=auto;html=1;entryX=0;entryY=0.5;entryDx=0;entryDy=0;entryPerimeter=0;" edge="1" parent="1" source="ASC8tzarfdHUPEDWtyre-26" target="ASC8tzarfdHUPEDWtyre-53">
          <mxGeometry relative="1" as="geometry">
            <mxPoint x="690" y="210" as="targetPoint" />
          </mxGeometry>
        </mxCell>
        <mxCell id="ASC8tzarfdHUPEDWtyre-37" value="No" style="edgeLabel;html=1;align=center;verticalAlign=middle;resizable=0;points=[];" vertex="1" connectable="0" parent="ASC8tzarfdHUPEDWtyre-36">
          <mxGeometry x="-0.3692" y="-1" relative="1" as="geometry">
            <mxPoint x="15" y="-1" as="offset" />
          </mxGeometry>
        </mxCell>
        <mxCell id="ASC8tzarfdHUPEDWtyre-26" value="¿Reintentar?" style="rhombus;whiteSpace=wrap;html=1;strokeWidth=2;fillColor=#dae8fc;strokeColor=#6c8ebf;" vertex="1" parent="1">
          <mxGeometry x="752.5" y="165" width="85" height="90" as="geometry" />
        </mxCell>
        <mxCell id="ASC8tzarfdHUPEDWtyre-15" value="¿Pago exitoso&lt;span style=&quot;background-color: transparent; color: light-dark(rgb(0, 0, 0), rgb(255, 255, 255));&quot;&gt;?&lt;/span&gt;" style="rhombus;whiteSpace=wrap;html=1;strokeWidth=2;fillColor=#dae8fc;strokeColor=#6c8ebf;" vertex="1" parent="1">
          <mxGeometry x="410" y="310" width="80" height="80" as="geometry" />
        </mxCell>
        <mxCell id="ASC8tzarfdHUPEDWtyre-25" value="Tarjeta rechazada" style="strokeWidth=2;html=1;shape=mxgraph.flowchart.display;whiteSpace=wrap;fillColor=#fff2cc;strokeColor=#d6b656;" vertex="1" parent="1">
          <mxGeometry x="740" y="320" width="110" height="60" as="geometry" />
        </mxCell>
        <mxCell id="ASC8tzarfdHUPEDWtyre-38" value="Su pago se realizo con éxito" style="strokeWidth=2;html=1;shape=mxgraph.flowchart.display;whiteSpace=wrap;fillColor=#fff2cc;strokeColor=#d6b656;" vertex="1" parent="1">
          <mxGeometry x="187.5" y="480" width="115" height="80" as="geometry" />
        </mxCell>
        <mxCell id="ASC8tzarfdHUPEDWtyre-39" style="edgeStyle=orthogonalEdgeStyle;rounded=0;orthogonalLoop=1;jettySize=auto;html=1;exitX=0.5;exitY=1;exitDx=0;exitDy=0;exitPerimeter=0;entryX=0.5;entryY=0;entryDx=0;entryDy=0;entryPerimeter=0;" edge="1" parent="1" source="ASC8tzarfdHUPEDWtyre-18" target="ASC8tzarfdHUPEDWtyre-38">
          <mxGeometry relative="1" as="geometry" />
        </mxCell>
        <mxCell id="ASC8tzarfdHUPEDWtyre-49" value="" style="edgeStyle=orthogonalEdgeStyle;rounded=0;orthogonalLoop=1;jettySize=auto;html=1;" edge="1" parent="1" source="ASC8tzarfdHUPEDWtyre-42" target="ASC8tzarfdHUPEDWtyre-48">
          <mxGeometry relative="1" as="geometry" />
        </mxCell>
        <mxCell id="ASC8tzarfdHUPEDWtyre-50" value="Si" style="edgeLabel;html=1;align=center;verticalAlign=middle;resizable=0;points=[];" vertex="1" connectable="0" parent="ASC8tzarfdHUPEDWtyre-49">
          <mxGeometry x="-0.146" y="1" relative="1" as="geometry">
            <mxPoint as="offset" />
          </mxGeometry>
        </mxCell>
        <mxCell id="ASC8tzarfdHUPEDWtyre-42" value="¿Desea&amp;nbsp;&lt;div&gt;realizar&amp;nbsp;&lt;span style=&quot;background-color: transparent; color: light-dark(rgb(0, 0, 0), rgb(255, 255, 255));&quot;&gt;un&amp;nbsp;&lt;/span&gt;&lt;div&gt;&lt;span style=&quot;background-color: transparent; color: light-dark(rgb(0, 0, 0), rgb(255, 255, 255));&quot;&gt;reembolso?&lt;/span&gt;&lt;/div&gt;&lt;/div&gt;" style="rhombus;whiteSpace=wrap;html=1;strokeWidth=2;fillColor=#dae8fc;strokeColor=#6c8ebf;" vertex="1" parent="1">
          <mxGeometry x="410" y="605" width="100" height="110" as="geometry" />
        </mxCell>
        <mxCell id="ASC8tzarfdHUPEDWtyre-44" value="Fin del pago" style="strokeWidth=2;html=1;shape=mxgraph.flowchart.terminator;whiteSpace=wrap;fillColor=#f8cecc;strokeColor=#b85450;" vertex="1" parent="1">
          <mxGeometry x="590" y="630" width="100" height="60" as="geometry" />
        </mxCell>
        <mxCell id="ASC8tzarfdHUPEDWtyre-45" style="edgeStyle=orthogonalEdgeStyle;rounded=0;orthogonalLoop=1;jettySize=auto;html=1;exitX=1;exitY=0.5;exitDx=0;exitDy=0;entryX=0;entryY=0.5;entryDx=0;entryDy=0;entryPerimeter=0;" edge="1" parent="1" source="ASC8tzarfdHUPEDWtyre-42" target="ASC8tzarfdHUPEDWtyre-44">
          <mxGeometry relative="1" as="geometry" />
        </mxCell>
        <mxCell id="ASC8tzarfdHUPEDWtyre-46" value="No" style="edgeLabel;html=1;align=center;verticalAlign=middle;resizable=0;points=[];" vertex="1" connectable="0" parent="ASC8tzarfdHUPEDWtyre-45">
          <mxGeometry x="-0.2" relative="1" as="geometry">
            <mxPoint as="offset" />
          </mxGeometry>
        </mxCell>
        <mxCell id="ASC8tzarfdHUPEDWtyre-48" value="Reembolsar compra" style="whiteSpace=wrap;html=1;strokeWidth=2;fillColor=#ffe6cc;strokeColor=#d79b00;" vertex="1" parent="1">
          <mxGeometry x="400" y="440" width="120" height="60" as="geometry" />
        </mxCell>
        <mxCell id="ASC8tzarfdHUPEDWtyre-51" value="Reembolso exitoso" style="strokeWidth=2;html=1;shape=mxgraph.flowchart.display;whiteSpace=wrap;fillColor=#fff2cc;strokeColor=#d6b656;" vertex="1" parent="1">
          <mxGeometry x="630" y="440" width="100" height="60" as="geometry" />
        </mxCell>
        <mxCell id="ASC8tzarfdHUPEDWtyre-52" style="edgeStyle=orthogonalEdgeStyle;rounded=0;orthogonalLoop=1;jettySize=auto;html=1;exitX=1;exitY=0.5;exitDx=0;exitDy=0;entryX=0;entryY=0.5;entryDx=0;entryDy=0;entryPerimeter=0;" edge="1" parent="1" source="ASC8tzarfdHUPEDWtyre-48" target="ASC8tzarfdHUPEDWtyre-51">
          <mxGeometry relative="1" as="geometry" />
        </mxCell>
        <mxCell id="ASC8tzarfdHUPEDWtyre-53" value="Proceso cancelado" style="strokeWidth=2;html=1;shape=mxgraph.flowchart.terminator;whiteSpace=wrap;fillColor=#f8cecc;strokeColor=#b85450;" vertex="1" parent="1">
          <mxGeometry x="950" y="180" width="100" height="60" as="geometry" />
        </mxCell>
        <mxCell id="ASC8tzarfdHUPEDWtyre-54" value="Compra reembolsada" style="strokeWidth=2;html=1;shape=mxgraph.flowchart.terminator;whiteSpace=wrap;fillColor=#f8cecc;strokeColor=#b85450;" vertex="1" parent="1">
          <mxGeometry x="790" y="440" width="100" height="60" as="geometry" />
        </mxCell>
        <mxCell id="ASC8tzarfdHUPEDWtyre-55" style="edgeStyle=orthogonalEdgeStyle;rounded=0;orthogonalLoop=1;jettySize=auto;html=1;exitX=1;exitY=0.5;exitDx=0;exitDy=0;exitPerimeter=0;entryX=0;entryY=0.5;entryDx=0;entryDy=0;entryPerimeter=0;" edge="1" parent="1" source="ASC8tzarfdHUPEDWtyre-51" target="ASC8tzarfdHUPEDWtyre-54">
          <mxGeometry relative="1" as="geometry" />
        </mxCell>
        <mxCell id="ASC8tzarfdHUPEDWtyre-56" style="edgeStyle=orthogonalEdgeStyle;rounded=0;orthogonalLoop=1;jettySize=auto;html=1;exitX=0.5;exitY=1;exitDx=0;exitDy=0;exitPerimeter=0;entryX=1;entryY=0.5;entryDx=0;entryDy=0;entryPerimeter=0;" edge="1" parent="1" source="ASC8tzarfdHUPEDWtyre-54" target="ASC8tzarfdHUPEDWtyre-44">
          <mxGeometry relative="1" as="geometry" />
        </mxCell>
        <mxCell id="ASC8tzarfdHUPEDWtyre-57" style="edgeStyle=orthogonalEdgeStyle;rounded=0;orthogonalLoop=1;jettySize=auto;html=1;exitX=0.5;exitY=1;exitDx=0;exitDy=0;exitPerimeter=0;entryX=1;entryY=0.5;entryDx=0;entryDy=0;entryPerimeter=0;" edge="1" parent="1" source="ASC8tzarfdHUPEDWtyre-53" target="ASC8tzarfdHUPEDWtyre-44">
          <mxGeometry relative="1" as="geometry" />
        </mxCell>
        <mxCell id="ASC8tzarfdHUPEDWtyre-60" style="edgeStyle=orthogonalEdgeStyle;rounded=0;orthogonalLoop=1;jettySize=auto;html=1;exitX=0;exitY=0.5;exitDx=0;exitDy=0;exitPerimeter=0;entryX=0.5;entryY=0;entryDx=0;entryDy=0;" edge="1" parent="1" source="ASC8tzarfdHUPEDWtyre-58">
          <mxGeometry relative="1" as="geometry">
            <mxPoint x="245" y="770" as="targetPoint" />
          </mxGeometry>
        </mxCell>
        <mxCell id="ASC8tzarfdHUPEDWtyre-62" style="edgeStyle=orthogonalEdgeStyle;rounded=0;orthogonalLoop=1;jettySize=auto;html=1;exitX=1;exitY=0.5;exitDx=0;exitDy=0;exitPerimeter=0;entryX=0;entryY=0.5;entryDx=0;entryDy=0;" edge="1" parent="1" source="ASC8tzarfdHUPEDWtyre-58" target="ASC8tzarfdHUPEDWtyre-42">
          <mxGeometry relative="1" as="geometry" />
        </mxCell>
        <mxCell id="ASC8tzarfdHUPEDWtyre-58" value="Imprimir factura de pago" style="strokeWidth=2;html=1;shape=mxgraph.flowchart.document2;whiteSpace=wrap;size=0.25;fillColor=#FFCCEE;strokeColor=#D5AAC5;" vertex="1" parent="1">
          <mxGeometry x="192.5" y="630" width="105" height="60" as="geometry" />
        </mxCell>
        <mxCell id="ASC8tzarfdHUPEDWtyre-59" style="edgeStyle=orthogonalEdgeStyle;rounded=0;orthogonalLoop=1;jettySize=auto;html=1;exitX=0.5;exitY=1;exitDx=0;exitDy=0;exitPerimeter=0;entryX=0.5;entryY=0;entryDx=0;entryDy=0;entryPerimeter=0;" edge="1" parent="1" source="ASC8tzarfdHUPEDWtyre-38" target="ASC8tzarfdHUPEDWtyre-58">
          <mxGeometry relative="1" as="geometry" />
        </mxCell>
        <mxCell id="ASC8tzarfdHUPEDWtyre-61" value="Enviar factura al modulo de reservas" style="shape=process;whiteSpace=wrap;html=1;backgroundOutline=1;strokeWidth=2;fillColor=light-dark(#CCFEFF,#50E2FF);strokeColor=#29A9CD;" vertex="1" parent="1">
          <mxGeometry x="185" y="770" width="120" height="60" as="geometry" />
        </mxCell>
      </root>
    </mxGraphModel>
  </diagram>
</mxfile>
